<?xml version="1.0" encoding="UTF-8"?>
<svg version="1.1" xmlns="http://www.w3.org/2000/svg" width="512" height="512">
<path d="M0 0 C3.43531838 0.74324223 6.88252096 1.37657456 10.34130859 2.00146484 C55.47109419 10.18052379 98.78670507 24.60602168 134.98583984 53.64599609 C136.49791016 54.85255859 136.49791016 54.85255859 138.04052734 56.08349609 C187.59735809 96.41903116 214.19932247 156.86759733 220.98583984 219.64599609 C221.08010254 220.49121826 221.17436523 221.33644043 221.27148438 222.20727539 C223.79158733 247.93351421 223.206224 275.16435805 218.98583984 300.64599609 C218.80311523 301.77086426 218.62039063 302.89573242 218.43212891 304.0546875 C213.85805349 331.10482316 205.48381077 358.17296023 192.98583984 382.64599609 C192.56334961 383.47341309 192.14085937 384.30083008 191.70556641 385.15332031 C185.6260403 396.89715288 178.88806726 408.04023265 170.98583984 418.64599609 C170.52048828 419.2736084 170.05513672 419.9012207 169.57568359 420.54785156 C136.41266773 464.6560181 90.05116185 491.42433653 36.61083984 503.08349609 C35.59304443 503.30618164 34.57524902 503.52886719 33.52661133 503.75830078 C30.02339713 504.46840807 26.51306557 505.06639373 22.98583984 505.64599609 C22.2640152 505.77623169 21.54219055 505.90646729 20.79849243 506.04064941 C0.27698065 509.65320983 -20.53592254 509.10560896 -41.29516602 509.03710938 C-46.52745271 509.02000973 -51.75927765 509.02989969 -56.99154758 509.04782677 C-61.0989259 509.05880679 -65.20619953 509.05515436 -69.31358147 509.04744339 C-71.23995968 509.04548095 -73.16634828 509.04775636 -75.09271431 509.05488205 C-137.17723914 509.2343207 -195.93348332 486.21352033 -240.70166016 443.27099609 C-249.90038876 433.79869935 -257.48270336 423.09620431 -264.01416016 411.64599609 C-264.34512695 411.07300781 -264.67609375 410.50001953 -265.01708984 409.90966797 C-272.94031989 396.09519414 -278.41727059 381.82926033 -282.32666016 366.39599609 C-282.56916504 365.43894775 -282.81166992 364.48189941 -283.06152344 363.49584961 C-286.17130416 350.59850107 -287.36658488 337.992664 -287.32983398 324.77050781 C-287.32668171 322.41212294 -287.35021276 320.05500789 -287.37548828 317.69677734 C-287.4365444 303.26802567 -285.58584787 289.18059441 -281.20166016 275.39599609 C-280.94231689 274.56302002 -280.68297363 273.73004395 -280.41577148 272.87182617 C-273.99590194 252.73140136 -263.76462056 236.52831082 -250.01416016 220.64599609 C-249.50981445 220.06043945 -249.00546875 219.47488281 -248.48583984 218.87158203 C-229.06429057 196.52718573 -204.64895007 180.46156276 -177.70166016 168.58349609 C-164.59292613 162.76681334 -152.57997705 156.86305489 -146.88525391 142.87255859 C-145.86762995 139.10324294 -145.7144509 135.58049172 -145.76416016 131.70849609 C-145.76802734 130.96051758 -145.77189453 130.21253906 -145.77587891 129.44189453 C-145.84836758 124.68381838 -146.2871599 120.1059192 -147.01416016 115.39599609 C-151.07520058 87.58669755 -145.62032483 61.15930519 -129.20556641 38.24365234 C-112.01963772 15.19760371 -83.6110953 1.68650849 -55.68798828 -2.90039062 C-37.33880189 -5.16599325 -17.96716353 -4.07712673 0 0 Z M-111.20166016 40.33349609 C-125.65779637 55.45220522 -133.21856473 75.93578528 -133.20166016 96.64599609 C-133.20262695 97.90101929 -133.20262695 97.90101929 -133.20361328 99.18139648 C-133.16124537 104.23425152 -132.78689467 109.0799031 -132.01416016 114.08349609 C-130.20930808 126.05524872 -128.79779839 140.36851762 -134.01416016 151.64599609 C-134.34287109 152.39623047 -134.67158203 153.14646484 -135.01025391 153.91943359 C-143.21028229 170.54648077 -160.7161221 177.75467819 -176.73510742 184.84277344 C-190.2170256 190.87382072 -202.51643047 198.35458751 -214.01416016 207.64599609 C-214.53429687 208.06461914 -215.05443359 208.48324219 -215.59033203 208.91455078 C-246.69275366 234.0989246 -267.49811791 265.56649672 -272.11987305 305.94360352 C-276.15818651 347.40679476 -264.40882508 390.18463289 -238.01416016 422.64599609 C-235.1116845 426.07808269 -232.10693088 429.38480716 -229.01416016 432.64599609 C-228.17111328 433.54189453 -227.32806641 434.43779297 -226.45947266 435.36083984 C-216.39081188 445.76512264 -205.05341033 454.03859411 -192.73632812 461.58886719 C-191.10352493 462.59114077 -189.48229223 463.61219284 -187.86181641 464.63427734 C-134.29576425 497.03362283 -67.65933615 500.53867802 -8.01416016 486.64599609 C26.51120956 478.06765205 57.36317614 463.78280332 83.73974609 439.66943359 C85.51309581 438.07187681 87.30267966 436.56216117 89.17333984 435.08349609 C92.84440072 431.90191 95.86083613 428.35499653 98.98583984 424.64599609 C99.72705078 423.80423828 100.46826172 422.96248047 101.23193359 422.09521484 C112.62644956 408.91403878 121.94583188 394.07762428 129.98583984 378.64599609 C130.32035156 378.00436523 130.65486328 377.36273438 130.99951172 376.70166016 C163.60630147 313.10888599 167.66028149 234.25490215 145.98583984 166.64599609 C135.81734847 137.27726162 121.14635607 111.01140638 101.98583984 86.64599609 C101.55899902 86.10056152 101.1321582 85.55512695 100.69238281 84.99316406 C71.00827413 47.46488666 28.26516224 17.72327705 -20.01416016 11.64599609 C-53.42185751 7.78684426 -86.28865739 17.24942409 -111.20166016 40.33349609 Z M70.98583984 34.64599609 C74.65486677 38.42475093 78.50965476 41.83290387 82.54833984 45.20849609 C93.1087728 54.16932791 102.42993284 63.73794971 110.98583984 74.64599609 C111.86741765 75.73813973 112.75028665 76.82924205 113.63427734 77.91943359 C124.15362267 90.97358327 133.20929796 104.79350169 140.98583984 119.64599609 C141.44748535 120.52449219 141.90913086 121.40298828 142.38476562 122.30810547 C177.85107422 190.68986312 182.00387866 272.56630335 158.98583984 345.64599609 C146.90379187 382.59451603 128.0233117 415.68940338 100.98583984 443.64599609 C100.24076172 444.44263672 99.49568359 445.23927734 98.72802734 446.06005859 C92.40441813 452.66368003 85.28031928 458.16966675 77.98583984 463.64599609 C77.15310547 464.27376953 76.32037109 464.90154297 75.46240234 465.54833984 C65.95826203 472.44127437 55.55059849 478.52972933 44.98583984 483.64599609 C48.93478474 484.96231106 51.64674061 483.87429359 55.48583984 482.70849609 C56.23559082 482.48250732 56.9853418 482.25651855 57.7578125 482.02368164 C110.81913278 465.45779478 151.5423991 427.87757677 177.56298828 379.36962891 C192.98520928 349.84830127 202.13747181 317.69253258 205.98583984 284.64599609 C206.08010254 283.88673828 206.17436523 283.12748047 206.27148438 282.34521484 C208.95263431 257.71125049 208.39959135 230.99102799 203.98583984 206.64599609 C203.78716309 205.53691895 203.58848633 204.4278418 203.38378906 203.28515625 C199.07940823 180.0028087 192.20190326 157.99907839 181.98583984 136.64599609 C181.66647461 135.96102051 181.34710938 135.27604492 181.01806641 134.5703125 C169.81470084 110.56553786 152.7431769 87.28893242 131.98583984 70.64599609 C130.99583984 69.83001953 130.00583984 69.01404297 128.98583984 68.17333984 C116.81608575 58.2670253 103.84921404 49.98362865 89.98583984 42.64599609 C89.12595459 42.18902344 88.26606934 41.73205078 87.38012695 41.26123047 C82.04910665 38.50453657 76.73924815 36.35534204 70.98583984 34.64599609 Z " fill="#000000" transform="translate(289.01416015625,3.35400390625)"/>
<path d="M0 0 C6.96463656 6.2101427 13.06920842 12.70843434 18.73828125 20.1484375 C19.48722656 21.10492188 20.23617188 22.06140625 21.0078125 23.046875 C26.44963154 30.11104213 31.30804654 37.41220838 35.73828125 45.1484375 C36.12097168 45.81133789 36.50366211 46.47423828 36.89794922 47.15722656 C48.86407261 68.13773312 56.7207873 90.57189282 61.73828125 114.1484375 C61.90408691 114.90882324 62.06989258 115.66920898 62.24072266 116.45263672 C72.84268138 166.11444335 66.02851436 219.89776981 45.73828125 266.1484375 C45.4227832 266.8796582 45.10728516 267.61087891 44.78222656 268.36425781 C27.94668002 307.07729178 -0.06813224 339.43563566 -35.55224609 362.05664062 C-37.05427918 363.0159511 -38.54383347 363.99474172 -40.03125 364.9765625 C-66.63834883 381.64982502 -100.44432566 390.17978764 -131.6875 390.3515625 C-132.97985817 390.36215195 -132.97985817 390.36215195 -134.29832458 390.37295532 C-170.34820699 390.60147236 -170.34820699 390.60147236 -185.26171875 387.1484375 C-186.14585449 386.94976074 -187.02999023 386.75108398 -187.94091797 386.54638672 C-201.07961394 383.50597085 -213.18719002 379.11819023 -225.26171875 373.1484375 C-226.2369751 372.68099121 -226.2369751 372.68099121 -227.23193359 372.20410156 C-260.11248071 356.37117569 -286.69503012 327.42975227 -299.00634766 293.09838867 C-309.71015551 261.85285524 -307.00530666 227.74370203 -292.8984375 198.01953125 C-288.23886118 188.6609761 -282.95021009 180.19859239 -276.26171875 172.1484375 C-275.81602539 171.59881348 -275.37033203 171.04918945 -274.91113281 170.48291016 C-255.87889964 147.0420437 -232.49895056 131.31711282 -204.96264648 119.17944336 C-191.27065724 113.08672787 -180.06920187 106.96177442 -173.390625 93.11328125 C-169.39357686 82.61584341 -171.13923418 70.36132779 -172.07617188 59.41870117 C-174.0185802 36.61830906 -171.89469498 16.2280023 -158.26171875 -2.8515625 C-154.52916427 -5.33993215 -152.6773094 -5.39382802 -148.26171875 -4.8515625 C-145.76171875 -2.7890625 -145.76171875 -2.7890625 -144.26171875 0.1484375 C-144.0320731 6.00440152 -146.70397471 9.72313401 -149.703125 14.484375 C-158.74274771 29.93555968 -157.46768739 46.65041655 -155.69921875 63.7109375 C-153.95778339 82.29576408 -155.2851204 99.12747507 -167.32421875 114.2734375 C-179.20025717 126.83609913 -196.09090512 133.1015873 -211.48876953 140.17089844 C-227.33705935 147.47047018 -240.99727656 157.8192112 -253.26171875 170.1484375 C-253.74334473 170.62748535 -254.2249707 171.1065332 -254.72119141 171.60009766 C-276.23106061 193.22706721 -289.22994344 222.32158264 -289.57421875 252.8984375 C-289.42668501 284.93734622 -275.70939269 312.23492966 -253.29394531 334.61303711 C-246.25652609 341.38053033 -238.41862437 346.82814458 -230.26171875 352.1484375 C-228.96041016 353.03595703 -228.96041016 353.03595703 -227.6328125 353.94140625 C-214.3879732 362.53327592 -198.56333217 367.6937744 -183.26171875 371.1484375 C-182.22845459 371.39400391 -182.22845459 371.39400391 -181.17431641 371.64453125 C-133.04714355 382.57790448 -80.08917056 371.15897041 -38.73046875 345.43359375 C-33.54967041 342.09881064 -28.87817473 338.21802101 -24.26171875 334.1484375 C-23.03582031 333.08689453 -23.03582031 333.08689453 -21.78515625 332.00390625 C-19.2369116 329.75902406 -16.74227649 327.4678714 -14.26171875 325.1484375 C-12.85792969 323.84326172 -12.85792969 323.84326172 -11.42578125 322.51171875 C2.15270215 309.59170865 12.41366543 294.31160868 21.73828125 278.1484375 C22.09728516 277.54418945 22.45628906 276.93994141 22.82617188 276.31738281 C52.96519164 225.46138867 57.05490563 160.81172396 43.06640625 104.44091797 C34.73371223 72.47268271 18.7741628 43.64022646 -3.26171875 19.1484375 C-3.95136719 18.375 -4.64101563 17.6015625 -5.3515625 16.8046875 C-24.9966105 -4.00925971 -54.34832286 -20.66137385 -83.171875 -23.1953125 C-97.14282599 -23.54205792 -110.07069137 -20.2250133 -122.41015625 -13.71875 C-125.15081204 -12.43515172 -127.27837666 -12.5407977 -130.26171875 -12.8515625 C-132.57421875 -13.9765625 -132.57421875 -13.9765625 -134.26171875 -15.8515625 C-135.36805421 -19.24432458 -135.61978946 -21.02734882 -134.1875 -24.32421875 C-131.76903317 -27.49814986 -129.079995 -28.85496106 -125.51171875 -30.4140625 C-124.85357178 -30.71070801 -124.1954248 -31.00735352 -123.51733398 -31.31298828 C-79.22452371 -50.56981735 -33.80961311 -29.68891136 0 0 Z " fill="#000000" transform="translate(351.26171875,79.8515625)"/>
<path d="M0 0 C11.82552414 10.99106175 15.90452552 25.25424141 17.24609375 40.86328125 C17.31684951 43.60610749 17.20352208 46.26335495 17 49 C16.9071875 50.24910156 16.814375 51.49820313 16.71875 52.78515625 C15.50031647 66.32525839 13.16188021 86.7918683 4.6328125 97.7578125 C2.08892654 99.6931133 -0.03358675 99.42118887 -3.125 99.2734375 C-5 99 -5 99 -7 98 C-9.67946193 92.64107614 -7.77746328 86.51234891 -6.01806641 81.14990234 C-5.74397949 80.33730957 -5.46989258 79.5247168 -5.1875 78.6875 C0.67904064 60.24635198 4.48734903 40.26764038 -3.359375 21.80078125 C-6.47937153 15.77790134 -9.31831189 11.22722937 -16 9 C-28.77769525 7.58025608 -39.12899022 11.92511113 -49.13671875 19.64453125 C-53.59410701 23.3113868 -57.96666424 27.07273199 -62.3359375 30.84375 C-63.55719256 31.89594837 -64.77854725 32.94803112 -66 34 C-66.60360352 34.52207031 -67.20720703 35.04414063 -67.82910156 35.58203125 C-83.75177086 49.24213924 -101.82860722 59.12159838 -123.42578125 58.3828125 C-144.99064747 56.07313284 -159.28866557 45.45114203 -172.703125 28.8984375 C-178.40629751 22.03921651 -184.87360365 16.93775816 -194 16 C-201.10978928 15.90781473 -206.77899454 17.67998154 -213 21 C-213.75667969 21.38800781 -214.51335937 21.77601563 -215.29296875 22.17578125 C-239.29287441 35.44815975 -258.70292082 60.35396192 -266.4375 86.5625 C-272.2879461 108.41640852 -268.56171851 130.44760706 -257.8125 150.125 C-244.72076814 171.47632234 -222.7083929 183.12133828 -199 189 C-156.71806362 198.62272989 -111.72633166 196.11792253 -74.08056641 173.31884766 C-64.96553693 167.54093294 -56.82917812 160.39422378 -49 153 C-47.78570312 151.88238281 -47.78570312 151.88238281 -46.546875 150.7421875 C-36.89224891 141.5429683 -29.31293241 130.61262248 -22.53515625 119.171875 C-20.89182837 116.8469633 -19.44016477 115.45837973 -17 114 C-13.84588065 114.12873957 -11.8005049 114.44792765 -9.1875 116.25 C-7.64521631 118.52283912 -7.31925502 120.27436028 -7 123 C-15.91976138 153.21907037 -50.75619672 178.80342409 -76.9375 193.19140625 C-116.65270448 214.3169349 -167.80856743 215.00088829 -210.328125 202.46484375 C-236.94742019 194.23688739 -260.52629216 178.98035062 -274 154 C-285.92605799 130.52140708 -288.73676182 103.17348029 -280.78125 78.01171875 C-270.68307543 48.22482322 -247.36831893 20.20931795 -219.24584961 5.93017578 C-206.79963857 -0.05796212 -194.77143092 -1.70511658 -181.4375 2.5625 C-168.3910149 7.84099182 -160.22723488 17.8230616 -151.94140625 28.703125 C-145.68543313 36.10455799 -135.43184099 40.4857136 -126 42 C-108.63551762 43.29362906 -93.57290309 36.50958858 -80.55859375 25.30859375 C-78.12908463 23.11647178 -75.72050255 20.90318288 -73.3125 18.6875 C-54.35972812 1.53689343 -24.60384486 -19.47804384 0 0 Z " fill="#000000" transform="translate(369,227)"/>
<path d="M0 0 C24.27137869 17.55099695 45.0493847 46.78396204 50.25 76.6875 C51.21443293 87.80039766 50.7838489 96.7464199 43.5625 105.5 C37.23093425 112.18137601 30.46415943 114.73602937 21.36352539 115.03076172 C11.68332417 115.16428174 3.62730948 113.60236976 -5.48925781 110.45800781 C-8.80992203 109.32625659 -12.1581042 108.28633191 -15.50610352 107.23876953 C-18.61578078 106.26408127 -21.71897026 105.26953928 -24.8215332 104.27246094 C-28.43608149 103.17606169 -31.54727707 102.56761981 -35.34399414 102.62158203 C-36.24916275 102.63134064 -37.15433136 102.64109924 -38.08692932 102.65115356 C-39.05984421 102.66572601 -40.03275909 102.68029846 -41.03515625 102.6953125 C-43.11392729 102.71284334 -45.19270366 102.72975021 -47.27148438 102.74609375 C-50.53425025 102.77691379 -53.79674564 102.81227492 -57.05932617 102.85888672 C-60.21796871 102.90161974 -63.37630121 102.92478473 -66.53515625 102.9453125 C-67.49390152 102.96393341 -68.45264679 102.98255432 -69.44044495 103.0017395 C-80.67000686 103.04357373 -92.0677774 100.23549235 -100.5 92.5 C-111.65578626 80.68199811 -109.22131091 63.35980536 -108.88183594 48.35742188 C-108.2930111 31.96628318 -102.98596911 16.54088587 -92.75 3.6875 C-92.12480469 2.85476562 -91.49960938 2.02203125 -90.85546875 1.1640625 C-66.8673702 -27.05199405 -26.70577824 -17.78260652 0 0 Z M-80 11.8125 C-92.62363746 27.13393094 -95.78381105 48.16442941 -94.49609375 67.5 C-93.75726218 73.35740342 -93.00051704 78.32512725 -88.75 82.6875 C-83.49996002 86.01468583 -78.47382237 87.85212623 -72.23535156 87.73754883 C-70.90180634 87.71806938 -70.90180634 87.71806938 -69.5413208 87.69819641 C-68.58409119 87.68048691 -67.62686157 87.6627774 -66.640625 87.64453125 C-64.58464543 87.6221089 -62.52865509 87.6006573 -60.47265625 87.58007812 C-57.25409256 87.54329872 -54.03609049 87.50067285 -50.81787109 87.44067383 C-37.75768048 87.20886607 -26.23012998 87.61390145 -13.75 91.6875 C-12.20070801 92.1673938 -12.20070801 92.1673938 -10.62011719 92.65698242 C-7.89741501 93.5223963 -5.19789016 94.43544645 -2.5 95.375 C-0.7243887 95.98432848 1.05163696 96.59245116 2.828125 97.19921875 C3.58512695 97.46178467 4.34212891 97.72435059 5.12207031 97.99487305 C12.20152931 100.29918984 20.3919556 101.09040061 27.6171875 99.00390625 C30.44898787 97.53939147 32.24929813 95.68840564 34.1875 93.1875 C38.35692055 79.4529382 32.34387812 66.2050977 26.0625 54.125 C12.9219666 29.74915867 -6.24091875 9.30855805 -32.87109375 -0.05859375 C-49.63395818 -4.65332975 -67.89763047 -0.88808551 -80 11.8125 Z " fill="#000000" transform="translate(317.75,84.3125)"/>
<path d="M0 0 C7.14571929 5.86610356 12.74439381 13.75643813 13.6875 23.1875 C14.53777832 33.79472209 11.59923857 43.04319406 4.6875 51.1875 C-3.53446159 58.98389422 -11.42417651 60.78399813 -22.61328125 60.5390625 C-30.48536932 59.79092319 -36.7608344 56.86533982 -42.3125 51.1875 C-48.76748066 42.80843857 -51.99746207 34.35630696 -51.1015625 23.671875 C-49.55787589 14.40975534 -45.89344528 6.58531814 -38.49609375 0.65625 C-26.62417331 -7.32915623 -11.94605355 -8.57146215 0 0 Z M-32.1875 15.8125 C-35.24322693 20.66571336 -36.92360724 25.62165777 -35.93359375 31.3984375 C-34.19893854 36.57266617 -31.19175786 41.38719316 -26.48828125 44.328125 C-22.24571248 46.00382541 -17.78480985 45.71327228 -13.3125 45.1875 C-7.90273184 42.53179563 -4.58321423 38.84994887 -2 33.4375 C-0.70798233 27.32978011 -1.40555608 22.23009461 -4.5625 16.8125 C-7.8448983 12.12202742 -11.00947693 10.25173996 -16.625 9.25 C-23.24489471 8.72128961 -27.42904184 11.46782081 -32.1875 15.8125 Z " fill="#000000" transform="translate(270.3125,198.8125)"/>
</svg>
