<?xml version="1.0" encoding="UTF-8"?>
<svg version="1.1" xmlns="http://www.w3.org/2000/svg" width="512" height="512">
<path d="M0 0 C4.47728027 3.30532759 8.94704407 6.67951212 11 12 C11 12.99 11 13.98 11 15 C12.134375 14.9175 13.26875 14.835 14.4375 14.75 C20.67934013 14.75 25.58659039 17.46419389 30.75 20.75 C36.77578863 26.77578863 39.96138846 33.8937859 40.3125 42.4375 C40.08113828 50.46711253 36.63367231 57.31776155 31 63 C25.21312586 67.05884922 20.01075951 69.14633713 12.9375 69.125 C11.65166016 69.12886719 11.65166016 69.12886719 10.33984375 69.1328125 C8 69 8 69 5 68 C4.74605469 68.71929687 4.49210937 69.43859375 4.23046875 70.1796875 C2.90910522 73.20833661 1.30939458 75.49647472 -0.6875 78.125 C-1.7109812 79.47460045 -2.73096033 80.82739665 -3.71473694 82.20620728 C-4.69323248 83.57185625 -5.70830594 84.91137771 -6.73924255 86.23788452 C-12.22756081 93.8642425 -12.9410692 99.72912354 -12.6484375 108.96875 C-12.62966577 110.98032825 -12.61089767 112.99190654 -12.59232521 115.00348663 C-12.55739846 117.79913791 -12.48952674 120.59363881 -12.42236328 123.38867188 C-12.29849842 128.91023538 -12.24562923 134.4332864 -12.17613029 139.9557476 C-12.14862507 141.95511555 -12.11371319 143.95437709 -12.07875061 145.95362854 C-11.95404105 154.12654134 -12.07241414 162.21954203 -12.86154175 170.35961914 C-13.3288493 176.02436229 -11.97551016 179.33614998 -8.62890625 183.81640625 C-3.69034592 190.43668257 -0.63330466 200.53776729 -1.1875 208.79296875 C-1.32932273 212.00613993 -1.2661328 214.02481161 0 217 C4.09469631 219.97940938 8.47745363 221.9573918 13.06689453 224.05712891 C25.94720854 230.33949474 37.12651246 241.51051551 42 255 C42.76344793 259.74391458 42.7629544 264.32990633 42.625 269.125 C42.6031665 270.43106201 42.58133301 271.73712402 42.55883789 273.08276367 C42.02715638 295.92324015 39.15207539 332.04360528 24.58203125 350.828125 C23 352 23 352 19.4375 351.875 C16 351 16 351 14 348 C14.33055817 342.84828205 15.83747939 338.3908267 17.6875 333.625 C20.45803716 326.14625462 22.50754864 318.56284566 24.375 310.8125 C24.63756592 309.73758301 24.90013184 308.66266602 25.1706543 307.55517578 C26.34303006 302.56441819 27.13339517 298.15179706 27 293 C26.46375 293.40089844 25.9275 293.80179687 25.375 294.21484375 C-38.63317027 340.64182252 -136.98571308 344.26753325 -213.0625 344.1875 C-214.14060944 344.18689575 -215.21871887 344.1862915 -216.32949829 344.18566895 C-292.25877065 344.07134598 -392.25215105 340.92438922 -455 293 C-453.85352354 338.44215774 -424.39567471 385.55213162 -392.6315918 416.34741211 C-343.50324053 462.76022196 -283.16091971 475.45227876 -217.59521484 475.26074219 C-213.65817246 475.2493287 -209.7213999 475.25614839 -205.78436661 475.26761436 C-172.95492208 475.37742286 -172.95492208 475.37742286 -140.5 470.875 C-139.48139893 470.66327148 -138.46279785 470.45154297 -137.41333008 470.23339844 C-95.86457503 461.14730391 -56.58053882 439.4415681 -27.41162109 408.30444336 C-26.00444993 406.8074294 -24.50651839 405.39699099 -23 404 C-19.25 403.9375 -19.25 403.9375 -16 405 C-14 408 -14 408 -13.86328125 410.64453125 C-15.62701846 415.85088956 -19.28011655 418.93082652 -23.1875 422.6875 C-24.00395996 423.48551025 -24.82041992 424.28352051 -25.66162109 425.10571289 C-32.40821177 431.61300198 -39.39321181 437.53406965 -47 443 C-47.61520508 443.44891602 -48.23041016 443.89783203 -48.86425781 444.36035156 C-84.03208343 469.89315647 -127.58948317 487.1082125 -171.41894531 487.16113281 C-172.92113617 487.16858017 -172.92113617 487.16858017 -174.45367432 487.17617798 C-177.74516508 487.1907 -181.03660754 487.19758758 -184.328125 487.203125 C-185.4631118 487.20595238 -186.5980986 487.20877975 -187.76747894 487.21169281 C-193.78281381 487.22665075 -199.79812495 487.23589965 -205.81347656 487.24023438 C-211.96891546 487.24569097 -218.12413002 487.26966921 -224.27949905 487.29820633 C-229.06191601 487.31701417 -233.84428109 487.32204802 -238.62673187 487.32357025 C-240.8924964 487.32656034 -243.15826084 487.33446224 -245.42398834 487.34775543 C-304.84152435 487.67127196 -360.78986412 465.01498312 -403.40771484 423.54541016 C-404.77528763 422.2180971 -406.16130336 420.90983314 -407.55078125 419.60546875 C-414.10868436 413.32712101 -419.56278005 406.24313982 -425 399 C-425.64437012 398.14680176 -425.64437012 398.14680176 -426.30175781 397.27636719 C-454.18457946 360.1207365 -469.69753083 315.38693272 -470.5625 268.9375 C-470.60165527 267.73641602 -470.64081055 266.53533203 -470.68115234 265.29785156 C-470.71038647 255.26080277 -467.81030441 247.30346428 -461.3515625 239.5546875 C-453.4088644 231.74854009 -444.26904432 224.24274466 -433.77807617 220.12866211 C-431.60430217 219.25192519 -429.83890862 218.45695965 -428 217 C-426.85389938 214.21487676 -426.84853994 211.54760138 -426.8125 208.5625 C-425.87056271 193.25755817 -419.37427496 178.55302767 -408 168 C-394.60261548 157.33237747 -379.45112004 150.53151045 -362 152 C-361.34 152.33 -360.68 152.66 -360 153 C-359.938125 151.9275 -359.87625 150.855 -359.8125 149.75 C-358.05995479 136.32171439 -349.67111396 124.36901304 -339.46875 115.84375 C-326.10558222 105.86366267 -310.73215359 100.71620305 -294 102 C-290.54389065 102.66493379 -287.15616205 103.45945793 -283.75 104.34375 C-280.98485933 105.1160593 -280.98485933 105.1160593 -278 105 C-276.12622083 102.81323315 -276.12622083 102.81323315 -274.3125 100 C-263.64334146 84.86919335 -248.61710622 75.32171616 -230.44140625 71.56640625 C-209.30590195 68.08780452 -188.14264734 71.07452815 -170 83 C-161.8484387 89.16814678 -155.6060349 96.47552928 -150 105 C-141.22925721 104.15665935 -134.1452795 100.26491835 -126.47900391 96.27734375 C-113.16178394 89.41544746 -99.67679044 83.0590898 -85.6875 77.6875 C-84.6037207 77.26500977 -83.51994141 76.84251953 -82.40332031 76.40722656 C-77.46719602 74.52388232 -72.63612701 72.83745714 -67.48046875 71.66796875 C-54.16249388 68.43698076 -48.91893005 61.96618476 -41.66943359 50.44287109 C-38.18393078 45.07281188 -38.18393078 45.07281188 -37 39 C-37.6312563 37.46413088 -38.30321856 35.94477373 -39 34.4375 C-41.93648333 27.21165352 -42.01933936 21.15665259 -39.375 13.8125 C-36.14196651 6.61165269 -32.11686239 2.04594046 -24.9296875 -1.2734375 C-16.85831843 -4.312455 -7.67064629 -4.04913907 0 0 Z M-25 13 C-28.06000335 16.88418763 -29.34090478 20.61870603 -29.0625 25.5625 C-28.40476716 29.63484585 -26.81424591 32.17814967 -24.05859375 35.19921875 C-22.45663969 37.92431404 -22.71513065 39.87109572 -23 43 C-24.56054688 46.06787109 -24.56054688 46.06787109 -26.71875 49.2734375 C-27.09608276 49.84204498 -27.47341553 50.41065247 -27.86218262 50.99649048 C-29.06207983 52.79822801 -30.28052602 54.58647026 -31.5 56.375 C-32.32027159 57.59941646 -33.1392961 58.82466936 -33.95703125 60.05078125 C-35.95701193 63.04367076 -37.97382205 66.02476435 -40 69 C-36.02103237 72.19873621 -31.99471014 75.2986068 -27.875 78.3125 C-27.25496094 78.77978516 -26.63492187 79.24707031 -25.99609375 79.72851562 C-24.38672134 80.90006952 -22.69712593 81.95962427 -21 83 C-17.32661211 81.77553737 -16.85342345 80.68042684 -14.78515625 77.484375 C-14.18123047 76.56269531 -13.57730469 75.64101562 -12.95507812 74.69140625 C-12.33052734 73.72074219 -11.70597656 72.75007813 -11.0625 71.75 C-9.82631961 69.84759155 -8.58809791 67.94650769 -7.34765625 66.046875 C-6.80117432 65.19963867 -6.25469238 64.35240234 -5.69165039 63.47949219 C-3.89556271 60.84692379 -2.15186574 58.3552552 0 56 C3.44397075 55.64372716 5.87139505 55.43569752 9 57 C14.25189007 57.40399154 17.56881474 56.88990343 22 54 C25.3890242 50.57443645 27.87316515 47.64885304 28.25 42.75 C27.93845703 38.07685552 26.92173184 34.90123337 23.53515625 31.55078125 C18.00537149 26.83221186 14.90694043 26.9457187 7.84765625 27.16015625 C5 27 5 27 2 25 C1.2265625 23.01171875 1.2265625 23.01171875 0.625 20.6875 C-1.00961075 15.39204226 -3.4684494 12.39901481 -8.375 9.6875 C-14.68179477 8.03572042 -19.99884652 8.61627287 -25 13 Z M-261.3125 102.3125 C-264.84062004 106.46365561 -267.35385485 110.94630025 -269.7734375 115.8125 C-271 118 -271 118 -273 119 C-278.21978774 119.65247347 -281.92417374 117.93669469 -286.625 115.95703125 C-297.29869643 111.65595292 -309.23878227 114.06363424 -319.6328125 117.99609375 C-331.0648494 123.17455561 -341.18616982 133.19550707 -346.3125 144.6875 C-348.60317963 150.91067684 -349.28166666 157.44048236 -350 164 C-350.60884033 163.98428955 -351.21768066 163.9685791 -351.8449707 163.95239258 C-367.73716504 163.27438304 -367.73716504 163.27438304 -383 167 C-383.83144531 167.32871094 -384.66289062 167.65742188 -385.51953125 167.99609375 C-397.89621279 173.49050384 -407.21935833 183.90213397 -412.375 196.3125 C-417.02215719 208.53654392 -415.76627548 221.01257805 -411 233 C-410.46375 234.05316406 -409.9275 235.10632813 -409.375 236.19140625 C-408 239 -408 239 -407.8125 241.9375 C-409.34435551 245.88807472 -411.63921754 247.39674683 -414.87109375 250.02734375 C-422.63221503 257.21884145 -427.60462788 269.65343439 -428.16796875 280.12109375 C-428.17441406 281.21550781 -428.18085938 282.30992187 -428.1875 283.4375 C-428.20167969 284.52933594 -428.21585937 285.62117187 -428.23046875 286.74609375 C-427.98118985 290.26557377 -427.51608856 292.80729586 -426 296 C-404.19716721 313.00694741 -366.57814781 317.29345299 -340 322 C-340.07436279 321.11111084 -340.14872559 320.22222168 -340.2253418 319.30639648 C-340.82719621 311.16725188 -341.02382358 303.13318188 -340.89453125 294.97265625 C-340.87298802 292.00627336 -340.85727175 289.03991497 -340.84350586 286.07348633 C-340.82285064 284.06765266 -340.78250955 282.06192433 -340.72241211 280.05688477 C-340.30326512 265.07879547 -342.68088528 255.93986118 -352.6541748 244.55096436 C-354 243 -354 243 -355.76049805 240.56323242 C-356.8760664 238.79655228 -356.8760664 238.79655228 -358.9453125 238.6796875 C-359.66460937 238.74414062 -360.38390625 238.80859375 -361.125 238.875 C-369.04257372 239.18297694 -375.08094656 237.81912596 -381.2734375 232.6875 C-386.3126005 227.76234521 -387.70553632 222.75508509 -388.09765625 215.7734375 C-387.84725935 208.66216541 -384.92837057 202.12925524 -380 197 C-376.12203214 194.31525302 -372.96529017 192.9767889 -368.4375 191.8125 C-363.47794219 190.30452634 -362.05863252 187.48846788 -359.5390625 183.16015625 C-356.48968261 178.88018905 -351.80831343 177.60277114 -347 176 C-339.60717771 175.26071777 -333.2848692 175.83046616 -327 180 C-321.86982787 184.54669762 -319.35206412 189.27360708 -318.69921875 196.18359375 C-318.69535156 197.25738281 -318.69148438 198.33117187 -318.6875 199.4375 C-318.67074219 200.50871094 -318.65398437 201.57992187 -318.63671875 202.68359375 C-319 206 -319 206 -320.89453125 209.33984375 C-322.35586181 212.78371995 -322.35586181 212.78371995 -321.1081543 215.15893555 C-319.52535622 217.59891974 -317.8181428 219.8551447 -316 222.125 C-315.40832031 222.91003906 -314.81664062 223.69507813 -314.20703125 224.50390625 C-309.03467483 231.27478342 -304.83262599 236.26600191 -296.4453125 238.76171875 C-295.35051323 239.10975807 -295.35051323 239.10975807 -294.2335968 239.46482849 C-292.67468189 239.9602819 -291.11382339 240.44965467 -289.55123901 240.93341064 C-285.45178809 242.2075441 -281.37178678 243.54041043 -277.29296875 244.87890625 C-276.48587967 245.14362732 -275.67879059 245.40834839 -274.84724426 245.68109131 C-254.09133282 252.56326782 -232.03216083 262.05457382 -215 276 C-214.14148438 276.67289063 -213.28296875 277.34578125 -212.3984375 278.0390625 C-198.31196736 289.74232319 -189.99222735 308.94056697 -187.453125 326.859375 C-187.34030042 329.85932799 -187.34030042 329.85932799 -186 331 C-132.32497004 334.18255594 -70.89158376 322.77635704 -20.75 304.8125 C-19.88753662 304.50393066 -19.02507324 304.19536133 -18.13647461 303.87744141 C-7.98908466 300.39315576 -7.98908466 300.39315576 -0.4375 293.4375 C1.35872546 279.32429993 -1.1185683 266.93212101 -9 255 C-11.88686084 251.28207316 -14.91248549 247.92438733 -18.5 244.875 C-20 243 -20 243 -19.75 240.265625 C-18.98009473 236.91332914 -17.88364229 234.02037288 -16.5 230.875 C-11.61552189 219.71453549 -11.66444721 208.74261722 -15.671875 197.171875 C-21.76331801 182.6240758 -30.58103714 173.43760136 -44.7890625 166.671875 C-55.44763834 162.67842442 -66.79684548 163.62670509 -78 164 C-78.09796875 163.10539062 -78.1959375 162.21078125 -78.296875 161.2890625 C-79.82463031 148.93531695 -82.75285223 140.38528918 -91 131 C-91.53496094 130.3709375 -92.06992187 129.741875 -92.62109375 129.09375 C-99.36451173 121.71965264 -108.48308905 117.60790607 -118 115 C-119.2065625 114.6596875 -119.2065625 114.6596875 -120.4375 114.3125 C-129.48042825 113.20970387 -138.89578253 113.94237208 -147.16015625 118.08203125 C-149.87885431 119.43849419 -152.01391987 119.3176681 -155 119 C-157.63497551 116.86078019 -159.05727452 114.31781391 -160.6875 111.375 C-168.45054934 98.27127789 -179.47466231 89.62169836 -194 85 C-218.55520201 78.74836511 -243.43785806 83.3524908 -261.3125 102.3125 Z M-353 193 C-353.99373439 195.2603044 -353.99373439 195.2603044 -354.6875 197.6875 C-354.93886719 198.49574219 -355.19023437 199.30398437 -355.44921875 200.13671875 C-355.63097656 200.75160156 -355.81273437 201.36648437 -356 202 C-361.67357513 202.99287565 -361.67357513 202.99287565 -363.96875 203.04296875 C-368.22983555 203.21505105 -370.48631894 203.95442658 -373.4375 207.125 C-376.08165932 210.65054576 -377.08298969 213.51855657 -377 218 C-375.27138532 222.1294684 -372.72883502 224.57192138 -369 227 C-364.2465983 228.512446 -360.83179581 227.6105986 -356.24609375 226.08203125 C-354 226 -354 226 -351.60546875 227.41015625 C-348.16754608 230.82746169 -345.57433571 234.61301974 -342.875 238.625 C-341.8357084 240.1622323 -340.79162727 241.6962402 -339.7421875 243.2265625 C-339.2869873 243.90283691 -338.83178711 244.57911133 -338.36279297 245.27587891 C-336.93212654 247.26826143 -336.93212654 247.26826143 -334 249 C-329.05 245.37 -324.1 241.74 -319 238 C-322.15760194 232.36064699 -322.15760194 232.36064699 -325.796875 227.28125 C-326.28027344 226.65863281 -326.76367188 226.03601563 -327.26171875 225.39453125 C-328.25989784 224.12388332 -329.26788308 222.86088221 -330.28515625 221.60546875 C-332.84002078 218.27932436 -333.94189191 216.48540294 -334.453125 212.21484375 C-334 209 -334 209 -332 206.0625 C-329.480906 202.20513731 -329.10604188 199.48766976 -330 195 C-331.62390049 191.86819191 -333.00266026 189.75660256 -335.8125 187.625 C-342.96694284 185.58087348 -348.2408321 187.51743858 -353 193 Z " fill="#4E4E4E" transform="translate(470,25)"/>
<path d="M0 0 C1.39001386 1.02154584 2.76608744 2.06243183 4.125 3.125 C4.75019531 3.57617188 5.37539063 4.02734375 6.01953125 4.4921875 C12.39403158 9.4084688 16.54566978 16.55654278 19.125 24.125 C19.125 25.445 19.125 26.765 19.125 28.125 C19.86363281 28.07859375 20.60226562 28.0321875 21.36328125 27.984375 C33.89827039 27.53840334 44.04383209 31.57752305 53.25 40.08984375 C63.22564211 50.5378174 67.66505985 62.86940002 67.375 77.13671875 C66.76726476 84.401054 64.45330646 92.85368077 59.125 98.125 C55.5 98.875 55.5 98.875 52.125 98.125 C50.125 96.4375 50.125 96.4375 49.125 94.125 C49.59132863 90.57145781 50.69465507 87.6746727 52.1875 84.4375 C55.30191996 76.76511507 54.92533931 69.50478121 52.28515625 61.70703125 C48.15576781 52.51670883 42.23058005 46.36241025 33.125 42.125 C30.32172783 41.19057594 28.89870038 41.04467682 26.03515625 41.16796875 C24.85856445 41.19987305 24.85856445 41.19987305 23.65820312 41.23242188 C22.01454785 41.2856945 20.37123119 41.35075247 18.72851562 41.42773438 C12.76005946 41.55993152 12.76005946 41.55993152 9.62109375 39.41015625 C7.99782855 36.9307564 7.49724992 35.29716184 7.125 32.375 C5.65522656 23.82016485 2.03124515 17.49072166 -4.875 12.125 C-13.91455618 6.73469454 -21.36453201 5.37066019 -31.875 6.125 C-34.70026652 6.89879911 -37.17018763 7.9657947 -39.875 9.125 C-42.86978938 9.52430525 -44.13479625 9.58443681 -46.6875 8 C-48.47327089 5.18036176 -48.40812947 3.39041798 -47.875 0.125 C-36.65161875 -12.54655947 -12.43003365 -7.96528294 0 0 Z " fill="#4E4E4E" transform="translate(357.875,176.875)"/>
<path d="M0 0 C3.5625 0.1875 3.5625 0.1875 5.5625 2.1875 C6.10474841 6.61586202 5.52300898 9.62154316 3.625 13.5625 C0.71048036 19.70380924 -0.32931144 25.10682202 1.75 31.6875 C2.94097923 34.82685539 4.30486042 37.87847323 5.6875 40.9375 C10.24948094 51.03654177 9.00596275 60.84339277 5.5625 71.1875 C3.70910911 75.5821382 2.02016789 79.16713248 -1.9375 81.9375 C-4.4375 82.1875 -4.4375 82.1875 -7.25 81.25 C-9.4375 79.1875 -9.4375 79.1875 -10 76.125 C-9.39038707 71.8577095 -8.13500654 68.44526578 -6.41015625 64.51953125 C-3.63353395 57.86232839 -3.8273768 51.91851935 -6.5078125 45.28125 C-7.14230736 43.85230359 -7.80521719 42.43572263 -8.4921875 41.03125 C-12.9319402 31.82767506 -13.40724709 22.99827163 -10.4375 13.1875 C-4.85589322 0.2648669 -4.85589322 0.2648669 0 0 Z " fill="#4F4F4F" transform="translate(323.4375,13.8125)"/>
<path d="M0 0 C3.125 0.25 3.125 0.25 5 1.375 C6.71381666 4.2313611 6.56121706 5.9472137 6.125 9.25 C5.20892996 11.35448523 4.16610324 13.35242045 3.08203125 15.375 C0.65294241 20.1340312 0.22696321 26.02102948 1.65625 31.16015625 C2.67312674 33.93998776 3.74592381 36.58559765 5.21484375 39.16015625 C9.73970203 47.51745677 9.31931914 57.70494687 7.359375 66.8046875 C5.70132489 72.08149776 3.83089024 77.09491094 0.125 81.25 C-2.3125 82.4375 -2.3125 82.4375 -4.875 82.25 C-7.75 80.125 -7.75 80.125 -9.875 77.25 C-9.4963535 73.5795718 -8.2198561 70.35402782 -6.875 66.9375 C-2.94943931 56.19613065 -4.38124339 49.701869 -9 39.5 C-13.49441453 29.53337848 -12.41422318 20.40840305 -9.02734375 10.1875 C-5.20859272 0.45292111 -5.20859272 0.45292111 0 0 Z " fill="#4E4E4E" transform="translate(191.875,13.75)"/>
<path d="M0 0 C3.4375 0.625 3.4375 0.625 5.4375 2.3125 C6.71230559 5.26048793 6.24281664 6.54932741 5.4375 9.625 C4.77620094 11.15740786 4.08750325 12.67821892 3.375 14.1875 C0.5592911 21.20079707 -0.09393723 27.7986791 2.75390625 34.9140625 C3.79618625 36.97853035 4.88431315 39.02081319 6.02734375 41.03125 C10.50771268 49.27215019 9.23133239 59.93606663 6.6875 68.625 C4.99523231 73.56329005 3.1772018 77.8852982 -0.5625 81.625 C-3.62010057 81.89087831 -5.77090805 82.05909881 -8.5 80.5625 C-10.18669927 77.48675428 -9.45818983 74.85419753 -8.5625 71.625 C-7.88681691 69.87040358 -7.19828917 68.12072291 -6.5 66.375 C-3.87548623 59.26653836 -3.12751484 53.37640038 -5.87890625 46.18359375 C-6.92590257 43.92561374 -8.01459253 41.68629515 -9.15234375 39.47265625 C-13.30009553 31.09672538 -12.59544796 20.85581714 -9.8125 12.125 C-5.5326881 0.97064704 -5.5326881 0.97064704 0 0 Z " fill="#4F4F4F" transform="translate(257.5625,-0.625)"/>
<path d="M0 0 C5.43912613 5.70090225 6.35033397 11.22309155 6.28515625 18.9140625 C5.78688206 24.30634479 3.79807738 28.14392012 0.0625 32 C-2.538016 33.26085624 -4.14457804 33.43929569 -7 33 C-8.8125 31.875 -8.8125 31.875 -10 30 C-10.375 27.0625 -10.375 27.0625 -10 24 C-9.505 23.360625 -9.01 22.72125 -8.5 22.0625 C-6.26336733 18.98713008 -6.60961232 16.70868298 -7 13 C-7.98189187 11.32260138 -8.98133771 9.65532623 -10 8 C-10.4375 4.875 -10.4375 4.875 -10 2 C-6.97576919 -1.60581366 -4.27412974 -1.57008847 0 0 Z " fill="#4E4E4E" transform="translate(320,312)"/>
<path d="M0 0 C4.68197967 1.7836113 6.90410899 5.45523354 8.9375 9.8125 C10.41836553 16.67833109 10.30229537 22.08376242 6.75390625 28.265625 C5.18951208 30.6690541 4.04926576 32.40691107 1.625 34 C-2.0625 33.875 -2.0625 33.875 -5.375 33 C-6.90346661 29.94306678 -6.60742445 27.37015453 -6.375 24 C-5.859375 23.360625 -5.34375 22.72125 -4.8125 22.0625 C-2.87921991 19.28866335 -3.31720264 17.1971043 -3.83984375 13.953125 C-4.33528398 11.77574706 -4.33528398 11.77574706 -6.0625 9.3125 C-7.375 7 -7.375 7 -6.75 4.3125 C-4.98295675 1.34065454 -3.54507492 0 0 0 Z " fill="#4E4E4E" transform="translate(382.375,300)"/>
<path d="M0 0 C0.95003906 -0.01675781 1.90007812 -0.03351563 2.87890625 -0.05078125 C5.4375 0.3125 5.4375 0.3125 7.28515625 1.609375 C8.4375 3.3125 8.4375 3.3125 8.3125 6.875 C7.4375 10.3125 7.4375 10.3125 4.4375 12.3125 C2.98283674 12.50863437 1.52366948 12.67286606 0.0625 12.8125 C-3.17937781 13.44403464 -4.23602019 13.84518576 -6.15625 16.59375 C-6.9931185 18.36954413 -7.77502982 20.17257598 -8.4921875 22 C-9.5625 24.3125 -9.5625 24.3125 -12.5625 26.3125 C-15.88490324 25.9883631 -17.17026303 25.70473697 -19.5625 23.3125 C-20.49789322 17.97205734 -19.79868402 13.40707557 -16.8359375 8.87890625 C-12.29626011 3.29482455 -7.24498714 0.02957138 0 0 Z " fill="#4E4E4E" transform="translate(332.5625,238.6875)"/>
<path d="M0 0 C1.83334219 1.26597994 3.27832766 2.43992686 4.69140625 4.16796875 C5.00390625 7.73046875 5.00390625 7.73046875 4.69140625 11.16796875 C2.69140625 13.16796875 2.69140625 13.16796875 -0.68359375 13.48046875 C-4.60110589 13.14275219 -5.34631255 12.46134775 -8.30859375 10.16796875 C-11.87071803 9.71322948 -13.66499493 9.77190794 -16.74609375 11.66796875 C-20.12629884 13.64662539 -22.45808449 13.60387546 -26.30859375 13.16796875 C-28.30859375 10.16796875 -28.30859375 10.16796875 -28.37109375 6.79296875 C-27.11401122 2.50409895 -25.80016181 1.47480943 -22.1953125 -0.88671875 C-15.02746584 -4.47806221 -6.87688117 -3.74711062 0 0 Z " fill="#4E4E4E" transform="translate(209.30859375,169.83203125)"/>
<path d="M0 0 C1.90625 0.48046875 1.90625 0.48046875 4.40625 2.54296875 C6.27611505 6.20478781 6.41473176 8.4126147 5.90625 12.48046875 C3.70625 17.08046875 3.70625 17.08046875 0.90625 18.48046875 C-3.06732645 19.01027894 -4.63545381 18.79928349 -7.96875 16.48046875 C-10.34898966 13.12013041 -10.80036131 11.43151414 -10.50390625 7.41796875 C-9.22782842 1.39002012 -5.72526668 -0.3952143 0 0 Z " fill="#4F4F4F" transform="translate(269.09375,172.51953125)"/>
<path d="M0 0 C4.10703441 0.85563217 5.55401113 2.24378009 8 5.625 C8.66154724 9.74129392 8.39475662 11.85193494 6.5 15.5625 C3.45855278 18.07169396 1.75886447 18.31547708 -2.09375 18.03515625 C-4 17.625 -4 17.625 -6.5 16.125 C-8.59158203 12.63902996 -8.8876276 9.52284294 -8 5.625 C-5.56226471 2.18349135 -4.14182881 0.862881 0 0 Z " fill="#4F4F4F" transform="translate(207,215.375)"/>
<path d="M0 0 C3.625 0.375 3.625 0.375 6 1.9375 C8.16038251 5.17807376 8.55687446 7.49184403 8.625 11.375 C7.27937601 14.32255732 6.53945456 15.91777272 3.625 17.375 C-2.54062108 17.94589084 -2.54062108 17.94589084 -5.75 15.75 C-7.76006043 12.81221938 -8.30233979 10.9353504 -8.375 7.375 C-6.33299482 3.09651295 -4.87591676 0.54176853 0 0 Z " fill="#4E4E4E" transform="translate(261.375,260.625)"/>
<path d="M0 0 C1.9375 1.125 1.9375 1.125 3 3 C3.49573337 6.89504791 3.58016848 9.09493717 1.4375 12.4375 C-1.96719488 14.61999672 -4.03430012 14.63734462 -8 14 C-10.5 11.9375 -10.5 11.9375 -12 9 C-12 5.19715329 -11.7968187 2.98069994 -9.375 0 C-5.91616747 -1.45635054 -3.58701629 -0.91305869 0 0 Z " fill="#4E4E4E" transform="translate(478,397)"/>
</svg>
