<?xml version="1.0" encoding="UTF-8"?>
<svg version="1.1" xmlns="http://www.w3.org/2000/svg" width="512" height="512">
<path d="M0 0 C8.00843432 4.64445785 12.51734917 10.65725679 15.375 19.4375 C17.4446744 28.03344695 15.98434989 35.99182867 11.75 43.6875 C7.25970492 50.64691111 1.19549052 54.78411929 -6.625 57.4375 C-7.89730469 57.52386719 -9.16960937 57.61023438 -10.48046875 57.69921875 C-15.04426972 58.23363764 -17.18915529 60.16643959 -20.4375 63.4375 C-21.47538665 64.45305944 -22.5157995 65.46604291 -23.55859375 66.4765625 C-24.32985596 67.23308105 -24.32985596 67.23308105 -25.11669922 68.00488281 C-27.30243925 70.08094667 -29.63824665 71.94118438 -32 73.8125 C-37.18261338 77.9766959 -42.0297952 82.44171569 -46.85498047 87.00927734 C-47.41717285 87.5398877 -47.97936523 88.07049805 -48.55859375 88.6171875 C-49.09081543 89.11959961 -49.62303711 89.62201172 -50.17138672 90.13964844 C-51.625 91.4375 -51.625 91.4375 -53.84765625 92.9453125 C-56.32724964 95.02708102 -57.21377761 97.54323728 -58.625 100.4375 C-60.09737933 102.26919391 -61.62259112 104.0591992 -63.1875 105.8125 C-69.26563891 112.80770742 -73.84126773 120.51017224 -78.625 128.4375 C-70.21 128.9325 -70.21 128.9325 -61.625 129.4375 C-61.315625 127.58125 -61.315625 127.58125 -61 125.6875 C-58.4859255 114.64291067 -52.57265962 106.28940469 -44.625 98.4375 C-43.70267578 97.48230469 -43.70267578 97.48230469 -42.76171875 96.5078125 C-33.24607472 87.33856237 -20.6691112 82.65162561 -7.625 82.125 C-2.43986691 82.24787045 2.6947804 83.13603422 7.375 85.4375 C12.7286446 91.21603703 11.84585542 99.23889591 11.734375 106.65234375 C11.36320413 114.48939658 8.72547384 121.91178924 4.375 128.4375 C5.00148438 128.54707031 5.62796875 128.65664062 6.2734375 128.76953125 C7.09070313 128.92808594 7.90796875 129.08664063 8.75 129.25 C9.56210937 129.40082031 10.37421875 129.55164063 11.2109375 129.70703125 C13.375 130.4375 13.375 130.4375 15.375 133.4375 C15.63226891 135.49992275 15.63226891 135.49992275 15.64242554 137.91563416 C15.65522049 139.29204323 15.65522049 139.29204323 15.66827393 140.69625854 C15.66736755 141.70133453 15.66646118 142.70641052 15.66552734 143.74194336 C15.67224457 144.80265549 15.67896179 145.86336761 15.68588257 146.95622253 C15.70494741 150.47997683 15.7087931 154.00354099 15.7109375 157.52734375 C15.71736685 159.98621193 15.72409532 162.44507934 15.73110962 164.90394592 C15.7431087 170.07489794 15.74678847 175.24578308 15.74560547 180.41674805 C15.7454038 186.99179604 15.77253546 193.56640434 15.80714989 200.14134884 C15.82958777 205.23171384 15.83343764 210.32197659 15.83238602 215.41238594 C15.83472322 217.83248958 15.8434386 220.25259688 15.85905075 222.67265129 C16.08344805 261.10229156 4.66592274 293.9545494 -22.4375 321.6875 C-42.42288681 341.43370361 -72.40495328 357.47002464 -101.0859375 357.5078125 C-102.25382812 357.48460937 -103.42171875 357.46140625 -104.625 357.4375 C-104.60405273 358.38592773 -104.58310547 359.33435547 -104.56152344 360.31152344 C-104.4932644 363.83766425 -104.44316071 367.36310099 -104.40527344 370.88964844 C-104.38518401 372.41450085 -104.35790684 373.93927648 -104.32324219 375.46386719 C-104.27460204 377.65839598 -104.25200604 379.85190469 -104.234375 382.046875 C-104.21342773 383.36655273 -104.19248047 384.68623047 -104.17089844 386.04589844 C-104.625 389.4375 -104.625 389.4375 -106.18841553 391.61772919 C-109.43271606 394.04074529 -112.17043076 393.9949616 -116.06445312 393.94543457 C-117.19240673 393.95479451 -117.19240673 393.95479451 -118.34314728 393.96434355 C-120.86449987 393.98030672 -123.38489013 393.96765689 -125.90625 393.95507812 C-127.71314051 393.96049779 -129.5200266 393.96761957 -131.3269043 393.97631836 C-136.2359803 393.99457322 -141.14472052 393.98747526 -146.05380249 393.97480202 C-151.18757034 393.96468556 -156.32130916 393.97406393 -161.45507812 393.98034668 C-170.07687551 393.98762703 -178.69853591 393.97802519 -187.3203125 393.95898438 C-197.29288969 393.93721492 -207.26513979 393.94426601 -217.23770905 393.96629 C-225.79492241 393.98443293 -234.35203723 393.98700773 -242.90926361 393.97653532 C-248.0223273 393.97029431 -253.13523717 393.96948146 -258.24829102 393.98268127 C-263.05497575 393.99422305 -267.86123816 393.98624469 -272.6678772 393.96310425 C-274.43355609 393.9578082 -276.19927044 393.95934621 -277.9649353 393.96815491 C-280.37228813 393.97905901 -282.77828111 393.96541046 -285.18554688 393.94543457 C-286.23787884 393.9588189 -286.23787884 393.9588189 -287.31147003 393.97247362 C-290.62929375 393.91893723 -292.37284094 393.62582579 -295.06158447 391.61772919 C-297.3549387 388.41957889 -297.07748341 385.94395489 -297.015625 382.046875 C-297.00996521 381.34226135 -297.00430542 380.63764771 -296.99847412 379.91168213 C-296.97615078 377.66958572 -296.92596754 375.42911012 -296.875 373.1875 C-296.85492952 371.66408565 -296.8366797 370.14064614 -296.8203125 368.6171875 C-296.77630118 364.8901017 -296.70730372 361.16395913 -296.625 357.4375 C-297.7490625 357.47101563 -298.873125 357.50453125 -300.03125 357.5390625 C-330.37922882 357.49906077 -359.82728723 340.18045181 -380.875 319.625 C-387.33617677 313.12539045 -392.61594852 306.09073478 -397.625 298.4375 C-398.17414063 297.64601563 -398.72328125 296.85453125 -399.2890625 296.0390625 C-410.98581299 278.21246416 -416.74619606 255.50776217 -416.80200195 234.42504883 C-416.80857315 233.33805191 -416.81514435 232.25105499 -416.82191467 231.13111877 C-416.84154719 227.55225549 -416.85328243 223.97343378 -416.86328125 220.39453125 C-416.86735678 219.17029638 -416.8714323 217.94606152 -416.87563133 216.68472862 C-416.89644038 210.21568345 -416.91076932 203.74665923 -416.92016602 197.27758789 C-416.92825298 191.92038671 -416.94945756 186.56340786 -416.98168945 181.20629883 C-417.02001298 174.73376823 -417.03891842 168.26146407 -417.04344749 161.78882408 C-417.04832803 159.32199549 -417.05998339 156.85517079 -417.07848549 154.38840675 C-417.10271946 150.94592273 -417.10194146 147.50430999 -417.0949707 144.06176758 C-417.10778076 143.03986328 -417.12059082 142.01795898 -417.13378906 140.96508789 C-417.08274669 134.07177617 -417.08274669 134.07177617 -414.73625183 130.82035828 C-412.64869985 129.45302327 -411.0855153 128.78900219 -408.625 128.4375 C-409.01171875 127.62410156 -409.3984375 126.81070313 -409.796875 125.97265625 C-416.09996208 112.10274434 -421.84060263 95.79622289 -417.4375 80.5625 C-414.70470011 73.53348447 -410.31059036 69.71951709 -403.625 66.4375 C-395.283055 63.93991168 -388.27924236 65.64839658 -380.625 69.4375 C-378.94747683 70.41917906 -377.27780572 71.4147532 -375.625 72.4375 C-375.38265625 71.20773438 -375.1403125 69.97796875 -374.890625 68.7109375 C-374.5527722 67.07798232 -374.21419192 65.44517754 -373.875 63.8125 C-373.63910156 62.60013672 -373.63910156 62.60013672 -373.3984375 61.36328125 C-371.65289488 53.10552192 -367.73216694 47.08893853 -360.625 42.4375 C-353.99717991 39.69765311 -347.34629553 39.62577655 -340.625 42.0625 C-332.83531983 45.43132982 -328.23496563 50.45270359 -323.625 57.4375 C-323.08875 56.756875 -322.5525 56.07625 -322 55.375 C-321.21625 54.405625 -320.4325 53.43625 -319.625 52.4375 C-318.97144531 51.57125 -318.97144531 51.57125 -318.3046875 50.6875 C-313.64117235 44.77528407 -308.6140792 41.69681836 -301.125 40.5625 C-293.61773252 40.06115851 -287.83064658 42.20132387 -281.73046875 46.55859375 C-272.82138661 54.50899915 -269.5276125 67.92919057 -268.625 79.4375 C-268.08617187 79.293125 -267.54734375 79.14875 -266.9921875 79 C-260.16052696 77.45805781 -253.47224056 77.21545886 -246.5 77.1875 C-245.5704248 77.17847656 -244.64084961 77.16945313 -243.68310547 77.16015625 C-238.34082604 77.18289339 -233.6575868 77.69598624 -228.53491211 79.25292969 C-226.5488623 79.63693014 -226.5488623 79.63693014 -224.82177734 78.34570312 C-223.73660045 77.33319903 -222.67766158 76.29230291 -221.63671875 75.234375 C-213.15395223 67.657535 -201.84965637 65.05329641 -190.8125 65.125 C-189.92393311 65.12991455 -189.03536621 65.1348291 -188.11987305 65.13989258 C-181.86781151 65.25183381 -176.3609126 65.77939416 -170.625 68.4375 C-169.88636719 68.76621094 -169.14773438 69.09492188 -168.38671875 69.43359375 C-161.89285294 72.67491883 -156.83164828 77.44824831 -151.625 82.4375 C-138.28745488 78.08949698 -125.5593799 72.61060728 -112.78076172 66.84130859 C-109.75599821 65.49577322 -106.71415837 64.20331546 -103.66015625 62.92578125 C-92.52298261 58.19976894 -83.55204617 52.93518872 -74.45214844 44.98730469 C-71.20848506 42.23599855 -67.78845459 39.72250972 -64.375 37.1875 C-63.70645996 36.68307373 -63.03791992 36.17864746 -62.34912109 35.65893555 C-59.38633466 33.43299842 -56.42561859 31.30841935 -53.3125 29.29296875 C-47.06975577 25.21692166 -44.58057465 22.28260886 -42.48828125 15.11328125 C-40.00552226 7.4178518 -34.72722514 3.41832431 -27.89453125 -0.43359375 C-19.54005992 -4.58926021 -8.29761817 -3.91456014 0 0 Z M-25.046875 18.29296875 C-27.01937298 20.97341774 -27.31675623 23.17859522 -27.9375 26.4375 C-30.4900548 35.93688116 -38.32806519 40.21626813 -45.99755859 45.58447266 C-49.6476766 48.15875213 -53.2191994 50.83272278 -56.79101562 53.51416016 C-58.51702735 54.80930585 -60.24857367 56.09711803 -61.98632812 57.37646484 C-62.78103516 57.96508301 -63.57574219 58.55370117 -64.39453125 59.16015625 C-65.09167236 59.67328369 -65.78881348 60.18641113 -66.50708008 60.71508789 C-69.03901315 62.77419888 -71.31733634 65.12983634 -73.625 67.4375 C-69.17 72.8825 -69.17 72.8825 -64.625 78.4375 C-59.14193854 74.53609088 -54.17826622 70.26221017 -49.26293945 65.68066406 C-45.1042586 61.82465759 -40.77765611 58.2343655 -36.33203125 54.7109375 C-33.55273622 52.44854144 -33.55273622 52.44854144 -30.94921875 49.7265625 C-24.92551638 43.64183855 -21.10907676 41.64236619 -12.59375 40.90234375 C-8.68255854 40.28993351 -6.55915755 38.93415755 -3.79296875 36.16796875 C-1.9166694 33.38803359 -1.69072836 30.72391778 -1.625 27.4375 C-2.615 27.7675 -3.605 28.0975 -4.625 28.4375 C-8.14081712 28.80609373 -11.41861334 29.04069333 -14.625 27.4375 C-16.22819333 24.23111334 -15.99359373 20.95331712 -15.625 17.4375 C-15.295 16.4475 -14.965 15.4575 -14.625 14.4375 C-19.23355369 13.59958115 -21.74436728 15.33042506 -25.046875 18.29296875 Z M-353.8125 58.9375 C-358.98897354 66.07746351 -358.22680568 74.65109874 -356.984375 82.94140625 C-355.77011036 90.78948643 -355.77011036 90.78948643 -354.09057617 98.54516602 C-353.55212158 100.73371428 -353.42073212 102.7476929 -353.375 105 C-353.34921875 105.76441406 -353.3234375 106.52882812 -353.296875 107.31640625 C-353.625 109.4375 -353.625 109.4375 -354.89453125 111.1875 C-357.31604637 112.93667571 -359.67442513 112.8493331 -362.58984375 112.93359375 C-366.37221697 112.0115949 -368.17423518 109.12406637 -370.23046875 105.9921875 C-370.75253906 105.10789063 -371.27460938 104.22359375 -371.8125 103.3125 C-377.04436678 94.95045652 -383.34632445 86.50709454 -392.625 82.4375 C-395.30164646 81.60044699 -395.30164646 81.60044699 -397.625 82.4375 C-400.87583536 85.16117287 -401.55870271 86.99551808 -402.1875 91.1875 C-401.95239738 95.76062519 -400.84333073 100.10378561 -399.625 104.5 C-399.45427979 105.14098633 -399.28355957 105.78197266 -399.10766602 106.44238281 C-396.62842075 114.72579127 -392.60953066 121.46843867 -388.625 129.4375 C-355.295 129.4375 -321.965 129.4375 -287.625 129.4375 C-286.31511231 118.95839846 -285.27639389 109.31187107 -285.30932617 98.90039062 C-285.31251069 96.80547037 -285.28879522 94.71193775 -285.26367188 92.6171875 C-285.15167072 75.34201142 -285.15167072 75.34201142 -292.625 60.4375 C-294.92737282 58.33773803 -294.92737282 58.33773803 -297.625 57.4375 C-300.77789004 58.05269806 -302.3230081 59.16296191 -304.6875 61.3125 C-310.180927 70.17286613 -311.37476228 80.14003108 -312.49829102 90.31445312 C-312.60326904 91.19166016 -312.70824707 92.06886719 -312.81640625 92.97265625 C-312.90092041 93.760354 -312.98543457 94.54805176 -313.07250977 95.35961914 C-313.73544806 97.85288818 -314.62097046 98.84779648 -316.625 100.4375 C-318.5625 100.8359375 -318.5625 100.8359375 -320.625 100.8125 C-321.6459375 100.82410156 -321.6459375 100.82410156 -322.6875 100.8359375 C-325.22442161 100.31423185 -325.97392582 99.41350206 -327.625 97.4375 C-328.40527344 95.37548828 -328.40527344 95.37548828 -328.984375 93.0078125 C-329.20931641 92.13576172 -329.43425781 91.26371094 -329.66601562 90.36523438 C-329.89998047 89.44033203 -330.13394531 88.51542969 -330.375 87.5625 C-334.9132265 70.69986865 -334.9132265 70.69986865 -346.625 58.4375 C-349.9255239 57.10157366 -350.85538141 56.90976154 -353.8125 58.9375 Z M-90.625 75.4375 C-91.17510742 75.71311768 -91.72521484 75.98873535 -92.29199219 76.27270508 C-115.32950969 87.73710777 -139.16759063 97.3844908 -163.8515625 104.6953125 C-178.05874741 108.92364134 -192.63195939 114.76106207 -202.29321289 126.58398438 C-203.06270264 127.52564453 -203.83219238 128.46730469 -204.625 129.4375 C-191.14343922 129.90207627 -177.66379678 130.25682046 -164.1758461 130.47374344 C-157.91138231 130.57789676 -151.6524132 130.71895174 -145.39111328 130.94628906 C-139.34107978 131.16456605 -133.29630567 131.28335572 -127.24263763 131.33504486 C-124.94069285 131.37184151 -122.63901895 131.44372029 -120.33933258 131.55210114 C-109.73886001 132.12912588 -109.73886001 132.12912588 -99.625 129.4375 C-94.42528771 124.65712365 -91.72850548 118.35746238 -88.91616058 112.00379181 C-86.39405418 106.99089018 -82.71839693 102.82314978 -79.10909653 98.56336594 C-77.43641967 96.55762904 -77.43641967 96.55762904 -75.625 93.4375 C-76.29027705 89.14518362 -79.11610685 86.4455002 -82 83.3125 C-82.77085937 82.46429688 -83.54171875 81.61609375 -84.3359375 80.7421875 C-86.33944272 78.72500648 -88.33776294 77.10767021 -90.625 75.4375 Z M-209.625 87.4375 C-208.49028532 90.84164403 -207.45274013 91.68026648 -204.75 93.9375 C-202.27084653 96.02328225 -199.8810424 98.11051287 -197.625 100.4375 C-193.78938171 98.95297366 -190.08995502 97.26325763 -186.375 95.5 C-181.19418808 93.08936055 -176.08678164 91.10380626 -170.625 89.4375 C-175.56741479 84.13010689 -181.20902906 82.25970011 -188.41918945 81.90893555 C-196.46552834 81.77770932 -202.59411943 83.26663865 -209.625 87.4375 Z M-268.625 99.4375 C-269.615 114.2875 -269.615 114.2875 -270.625 129.4375 C-264.72785668 129.78499644 -258.86682447 130.08186629 -252.9675293 130.26147461 C-250.96955523 130.33633223 -248.97238695 130.43827958 -246.97729492 130.5690918 C-235.73397979 131.57974286 -235.73397979 131.57974286 -225.43157959 127.94903564 C-221.61395303 124.41734302 -218.57844319 120.41367969 -215.80485535 116.02662659 C-214.625 114.4375 -214.625 114.4375 -211.625 112.4375 C-213.8537019 105.11462232 -220.59140801 101.8048922 -226.89453125 98.10546875 C-241.05976467 91.08855349 -254.70585374 93.25121277 -268.625 99.4375 Z M-35.765625 113.74609375 C-41.55125319 120.83595819 -41.55125319 120.83595819 -43.625 129.4375 C-39.62626877 129.70092993 -35.62978186 129.85936385 -31.625 130 C-30.49964844 130.07541016 -29.37429688 130.15082031 -28.21484375 130.22851562 C-21.73248454 130.4214551 -21.73248454 130.4214551 -16.11303711 127.5456543 C-9.92490326 120.70769255 -5.42463339 113.06242941 -5.5625 103.6875 C-5.57152344 102.88828125 -5.58054687 102.0890625 -5.58984375 101.265625 C-5.60144531 100.66234375 -5.61304688 100.0590625 -5.625 99.4375 C-17.0707995 98.20011627 -28.31091107 105.70642964 -35.765625 113.74609375 Z M-400.625 145.4375 C-405.46146121 234.16795434 -405.46146121 234.16795434 -369.625 306.4375 C-368.83222656 307.35789062 -368.83222656 307.35789062 -368.0234375 308.296875 C-348.06297645 329.79275613 -318.17731318 339.85701045 -289.625 341.4375 C-283.79185617 341.57810681 -277.96127946 341.58481191 -272.12670898 341.58276367 C-270.40356881 341.58576279 -268.6804293 341.58916702 -266.95729065 341.59294128 C-262.312234 341.60171042 -257.66719581 341.60411643 -253.02213168 341.60475707 C-250.10874224 341.60547178 -247.19535737 341.60761404 -244.28196907 341.61025429 C-234.08568147 341.61948532 -223.88940687 341.62359212 -213.69311523 341.62280273 C-204.24164652 341.62220303 -194.79023507 341.63273959 -185.33878082 341.6485464 C-177.18115838 341.66169517 -169.02355449 341.66698355 -160.86592156 341.66634732 C-156.01296949 341.66609442 -151.16006836 341.66882908 -146.307127 341.67952538 C-141.7343187 341.68933049 -137.16160874 341.68920222 -132.58879662 341.68200874 C-130.9281881 341.68097801 -129.26757305 341.6832335 -127.60697556 341.6893692 C-118.70604146 341.72007773 -109.91633069 341.41178155 -101.0528717 340.55513 C-99.84478227 340.44040416 -99.84478227 340.44040416 -98.61228698 340.32336062 C-74.59283428 337.78089827 -53.63416166 326.12472572 -35.625 310.4375 C-35.01140625 309.90898437 -34.3978125 309.38046875 -33.765625 308.8359375 C-11.4350195 288.10037525 -2.72946337 258.8999872 -0.625 229.4375 C-0.625 201.7175 -0.625 173.9975 -0.625 145.4375 C-132.625 145.4375 -264.625 145.4375 -400.625 145.4375 Z M-280.625 357.4375 C-280.625 364.0375 -280.625 370.6375 -280.625 377.4375 C-227.825 377.4375 -175.025 377.4375 -120.625 377.4375 C-120.625 370.8375 -120.625 364.2375 -120.625 357.4375 C-173.425 357.4375 -226.225 357.4375 -280.625 357.4375 Z " fill="#000000" transform="translate(456.625,78.5625)"/>
<path d="M0 0 C2.5 1.5 2.5 1.5 4 4 C4.92249904 8.45874535 4.8804873 10.57034278 2.484375 14.4609375 C0.42898945 17.09085996 -1.7318957 19.55170089 -4 22 C-4.61230469 22.69222656 -5.22460938 23.38445312 -5.85546875 24.09765625 C-19.03021683 38.22750333 -37.35433709 46.98016768 -56 51 C-56.77859375 51.19078125 -57.5571875 51.3815625 -58.359375 51.578125 C-62.25903302 52.20114729 -66.11888969 52.26475653 -70.0625 52.3125 C-70.86494141 52.34150391 -71.66738281 52.37050781 -72.49414062 52.40039062 C-76.30290651 52.44148105 -78.34299537 52.46000478 -81.52734375 50.23046875 C-83.07125434 47.89207898 -83.54325155 46.76809909 -83.5 44 C-83.5103125 43.34 -83.520625 42.68 -83.53125 42 C-82.7047836 38.88859707 -81.6388759 37.88034879 -79 36 C-75.76462628 35.1890427 -72.50175648 34.89251633 -69.1875 34.5625 C-47.27813514 31.87833965 -27.37248359 23.09198381 -13.375 5.4375 C-12.76398438 4.61121094 -12.15296875 3.78492188 -11.5234375 2.93359375 C-8.52835486 -0.8678573 -4.51517144 -0.6157052 0 0 Z " fill="#000000" transform="translate(419,352)"/>
<path d="M0 0 C2.1640625 0.4140625 2.1640625 0.4140625 4.7265625 2.5390625 C6.38938185 5.8647012 6.6328164 7.74215694 6.1640625 11.4140625 C5.49739583 12.74739583 4.83072917 14.08072917 4.1640625 15.4140625 C3.79265691 20.1030581 4.67548494 23.01188285 6.6640625 27.2265625 C10.49622677 36.76876071 11.01111436 47.57281047 7.3515625 57.2890625 C6.03167031 60.19181391 4.70248673 62.44376179 2.1640625 64.4140625 C-0.90364531 65.09200898 -3.75507355 65.00354188 -6.8359375 64.4140625 C-9.92145723 61.85533882 -10.71554827 60.37717635 -11.2109375 56.4140625 C-10.8359375 53.4140625 -10.8359375 53.4140625 -9.83984375 51.0390625 C-7.19193849 44.11535691 -8.49969463 37.67571012 -11.3359375 31.0390625 C-14.36797783 23.77425931 -15.50189692 16.56559721 -13.03125 8.92578125 C-9.97060106 2.43673099 -7.33747346 -0.26290622 0 0 Z " fill="#000000" transform="translate(210.8359375,79.5859375)"/>
<path d="M0 0 C3.54648681 0.08566393 4.3508454 0.21015228 7.1875 2.5625 C8.84101636 5.86953273 9.10109586 7.78743173 8.625 11.4375 C7.635 12.9225 7.635 12.9225 6.625 14.4375 C6.17841763 19.6476277 7.08380812 23.17471895 9.125 27.9375 C13.11176926 38.62567628 12.98397282 48.66768368 8.79296875 59.265625 C7.59002716 61.50253311 6.65394317 62.91096181 4.625 64.4375 C1.55411534 65.11614854 -1.28903557 65.01021052 -4.375 64.4375 C-7 62.5 -7 62.5 -8.375 59.4375 C-8.44805112 55.58571354 -8.10949506 51.90649012 -6.375 48.4375 C-5.48266874 42.26766674 -6.58363939 37.43531984 -8.875 31.6875 C-11.80406488 24.00498125 -13.55216818 15.73634315 -10.3125 7.8515625 C-7.6097302 3.39520992 -5.46579676 0.15434974 0 0 Z " fill="#000000" transform="translate(311.375,75.5625)"/>
<path d="M0 0 C0.66 -0.0103125 1.32 -0.020625 2 -0.03125 C5.06758361 0.7835769 6.1579142 1.9129828 8 4.5 C8.37990667 7.46446861 8.52267101 9.98480241 8.4375 12.9375 C8.42356201 13.73502686 8.40962402 14.53255371 8.39526367 15.35424805 C7.86004022 32.74116509 7.86004022 32.74116509 2.75 38.8125 C-0.8282301 41.00823211 -2.87248547 41.17541147 -7 40.5 C-9.85772953 38.54471137 -10.78425875 37.14722376 -11.875 33.875 C-12.0121776 30.17120486 -11.424847 27.15612337 -10.59765625 23.5625 C-10.12870422 21.159504 -9.80091672 18.86635206 -9.55859375 16.4375 C-9.48552002 15.7264209 -9.41244629 15.0153418 -9.3371582 14.28271484 C-9.19802411 12.86767786 -9.07237936 11.45123554 -8.96166992 10.03369141 C-8.62595535 6.74891525 -8.16775767 4.72535688 -6.1796875 2.0546875 C-3.86006833 0.40019211 -2.81014281 -0.04390848 0 0 Z " fill="#000000" transform="translate(432,299.5)"/>
</svg>
